<?xml version="1.0" encoding="utf-8"?>
<!-- Generator: Adobe Illustrator 24.0.1, SVG Export Plug-In . SVG Version: 6.00 Build 0)  -->
<svg version="1.2" baseProfile="tiny" xmlns="http://www.w3.org/2000/svg" xmlns:xlink="http://www.w3.org/1999/xlink" x="0px"
	 y="0px" viewBox="0 0 1246.81 436.86" xml:space="preserve">
<g id="logo" display="none">
	<polygon id="XMLID_6_" display="inline" fill="#EEF4FF" points="89.81,182.82 219.97,182.35 219.49,28.86 92.95,71.22 	"/>
	<polygon id="XMLID_5_" display="inline" fill="#EEF4FF" points="207.46,351.51 332,260.78 337.3,182.08 205.95,182.18 	"/>
	<g id="XMLID_44_" display="inline">
		<g id="XMLID_51_">
			<path id="XMLID_56_" fill-rule="evenodd" fill="#383A59" stroke="#EEF4FF" stroke-width="5" stroke-miterlimit="10" d="
				M238.29,391.24c5.34-0.8,10.7-1.28,14.58-0.96c6.41,0.59,13.12,3.48,18.57,7.18c5.3,3.78,9.67,8.2,11.34,12.1
				c-9.75,3.48-23.61,5.66-34.88,5.58c-10.32,0.08-21.79-8.53-26.06-18.1c-1.93-4.34-5.46-3.84-3.32-8.58
				c2.81-6.24,6.74-14.24,10.79-19.5c8.64-10.9,27.21-20.67,36.15-24.15c-4.06,7.67-8.48,17.15-15.04,26.85
				c-2.42,3.58-6.06,7.22-10.31,10.56c-5.04,3.96-8.22,5.67-13.71,8.73l-6.15,3.43l5.2-0.85
				C229.74,392.82,233.99,391.89,238.29,391.24L238.29,391.24z"/>
			<path id="XMLID_54_" fill-rule="evenodd" fill="#383A59" stroke="#EEF4FF" stroke-width="5" stroke-miterlimit="10" d="
				M319.12,358.52c4.26-2.63,8.66-4.99,12.08-6.13c5.68-1.84,12.44-1.8,18.45-0.64c5.89,1.3,11.23,3.48,14.07,6.18
				c-7.05,6.51-18.07,13.42-27.71,17.45c-8.77,3.82-21.68,0.66-28.8-5.95c-3.22-2.99-6.05-1.29-5.96-6.11
				c0.13-6.34,0.56-14.58,2.11-20.55c3.39-12.43,15.67-27.52,22.02-33.74c-0.67,8.02-0.98,17.71-3.04,28.36
				c-0.77,3.94-2.55,8.36-4.95,12.76c-2.85,5.21-4.93,7.82-8.5,12.43l-4,5.17l4.13-2.62C312.41,362.98,315.7,360.64,319.12,358.52
				L319.12,358.52z"/>
			<path id="XMLID_55_" fill-rule="evenodd" fill="#383A59" stroke="#EEF4FF" stroke-width="5" stroke-miterlimit="10" d="
				M281.44,375.63c4.71-1.68,9.49-3.08,13.08-3.49c5.93-0.61,12.55,0.82,18.17,3.22c5.49,2.49,10.26,5.73,12.48,8.97
				c-8.25,4.91-20.46,9.37-30.72,11.31c-9.37,1.92-21.34-3.86-26.94-11.81c-2.53-3.6-5.64-2.52-4.55-7.21
				c1.44-6.18,3.58-14.15,6.34-19.67c5.91-11.45,21.05-23.65,28.55-28.43c-2.32,7.71-4.65,17.12-8.88,27.11
				c-1.56,3.69-4.22,7.65-7.49,11.45c-3.87,4.51-6.46,6.63-10.9,10.39l-4.99,4.22l4.58-1.7
				C273.94,378.6,277.64,376.99,281.44,375.63L281.44,375.63z"/>
			<path id="XMLID_53_" fill-rule="evenodd" fill="#383A59" stroke="#EEF4FF" stroke-width="5" stroke-miterlimit="10" d="
				M350.36,331.44c3.73-2.87,7.61-5.49,10.7-6.89c5.13-2.26,11.46-2.89,17.18-2.37c5.63,0.65,10.83,2.17,13.75,4.43
				c-5.96,6.77-15.6,14.28-24.22,18.98c-7.82,4.41-20.2,2.7-27.49-2.78c-3.3-2.49-5.78-0.63-6.15-5.14
				c-0.49-5.94-0.88-13.69-0.01-19.41c1.97-11.94,11.99-27.23,17.33-33.66c0.15,7.56,0.78,16.65-0.12,26.8
				c-0.34,3.75-1.57,8.06-3.39,12.41c-2.16,5.14-3.86,7.79-6.75,12.44l-3.24,5.21l3.61-2.85
				C344.51,336.25,347.35,333.75,350.36,331.44L350.36,331.44z"/>
			<path id="XMLID_52_" fill-rule="evenodd" fill="#383A59" stroke="#EEF4FF" stroke-width="5" stroke-miterlimit="10" d="
				M377.08,299.17c2.96-3.65,6.12-7.11,8.79-9.18c4.47-3.39,10.48-5.47,16.16-6.31c5.62-0.68,11.03-0.41,14.4,1.11
				c-4.23,7.97-11.84,17.51-19.13,24.09c-6.59,6.12-19.02,7.34-27.4,3.7c-3.79-1.65-5.76,0.73-7.17-3.56
				c-1.87-5.67-4.05-13.11-4.53-18.88c-0.86-12.08,5.32-29.28,9.01-36.77c1.91,7.32,4.64,16.01,6.13,26.09
				c0.54,3.73,0.35,8.2-0.41,12.85c-0.9,5.51-1.94,8.48-3.67,13.67l-1.94,5.82l2.84-3.61C372.52,305.22,374.7,302.12,377.08,299.17
				L377.08,299.17z"/>
		</g>
		<g id="XMLID_45_">
			<path id="XMLID_50_" fill-rule="evenodd" fill="#383A59" stroke="#EEF4FF" stroke-width="5" stroke-miterlimit="10" d="
				M186.34,391.24c-5.34-0.8-10.69-1.28-14.58-0.96c-6.41,0.59-13.12,3.48-18.57,7.18c-5.29,3.78-9.67,8.2-11.34,12.1
				c9.76,3.48,23.62,5.66,34.89,5.58c10.31,0.08,21.79-8.53,26.06-18.1c1.93-4.34,5.45-3.84,3.32-8.58
				c-2.81-6.24-6.73-14.24-10.8-19.5c-8.63-10.9-27.21-20.67-36.15-24.15c4.06,7.67,8.48,17.15,15.04,26.85
				c2.43,3.58,6.06,7.22,10.32,10.56c5.03,3.96,8.22,5.67,13.7,8.73l6.16,3.43l-5.2-0.85C194.89,392.82,190.64,391.89,186.34,391.24
				L186.34,391.24z"/>
			<path id="XMLID_48_" fill-rule="evenodd" fill="#383A59" stroke="#EEF4FF" stroke-width="5" stroke-miterlimit="10" d="
				M105.5,358.52c-4.25-2.63-8.65-4.99-12.07-6.13c-5.68-1.84-12.45-1.8-18.45-0.64c-5.89,1.3-11.23,3.48-14.07,6.18
				c7.05,6.51,18.07,13.42,27.7,17.45c8.77,3.82,21.68,0.66,28.81-5.95c3.22-2.99,6.05-1.29,5.95-6.11
				c-0.13-6.34-0.56-14.58-2.11-20.55c-3.4-12.43-15.67-27.52-22.02-33.74c0.66,8.02,0.98,17.71,3.05,28.36
				c0.76,3.94,2.54,8.36,4.94,12.76c2.85,5.21,4.94,7.82,8.51,12.43l4,5.17l-4.13-2.62C112.21,362.98,108.93,360.64,105.5,358.52
				L105.5,358.52z"/>
			<path id="XMLID_49_" fill-rule="evenodd" fill="#383A59" stroke="#EEF4FF" stroke-width="5" stroke-miterlimit="10" d="
				M143.19,375.63c-4.71-1.68-9.5-3.08-13.08-3.49c-5.94-0.61-12.55,0.82-18.17,3.22c-5.49,2.49-10.27,5.73-12.48,8.97
				c8.25,4.91,20.46,9.37,30.72,11.31c9.37,1.92,21.35-3.86,26.94-11.81c2.53-3.6,5.65-2.52,4.55-7.21
				c-1.44-6.18-3.58-14.15-6.34-19.67c-5.9-11.45-21.05-23.65-28.55-28.43c2.32,7.71,4.64,17.12,8.87,27.11
				c1.56,3.69,4.22,7.65,7.49,11.45c3.86,4.51,6.45,6.63,10.9,10.39l4.98,4.22l-4.58-1.7C150.68,378.6,146.98,376.99,143.19,375.63
				L143.19,375.63z"/>
			<path id="XMLID_47_" fill-rule="evenodd" fill="#383A59" stroke="#EEF4FF" stroke-width="5" stroke-miterlimit="10" d="
				M74.27,331.44c-3.73-2.87-7.61-5.49-10.7-6.89c-5.13-2.26-11.46-2.89-17.18-2.37c-5.63,0.65-10.83,2.17-13.75,4.43
				c5.97,6.77,15.6,14.28,24.22,18.98c7.82,4.41,20.2,2.7,27.5-2.78c3.3-2.49,5.78-0.63,6.15-5.14c0.49-5.94,0.89-13.69,0.01-19.41
				c-1.98-11.94-12-27.23-17.33-33.66c-0.15,7.56-0.79,16.65,0.11,26.8c0.34,3.75,1.57,8.06,3.4,12.41
				c2.16,5.14,3.86,7.79,6.75,12.44l3.24,5.21l-3.6-2.85C80.11,336.25,77.27,333.75,74.27,331.44L74.27,331.44z"/>
			<path id="XMLID_46_" fill-rule="evenodd" fill="#383A59" stroke="#EEF4FF" stroke-width="5" stroke-miterlimit="10" d="
				M47.54,299.17c-2.95-3.65-6.11-7.11-8.79-9.18c-4.46-3.39-10.48-5.47-16.15-6.31c-5.63-0.68-11.04-0.41-14.4,1.11
				c4.22,7.97,11.84,17.51,19.13,24.09c6.58,6.12,19.01,7.34,27.39,3.7c3.79-1.65,5.76,0.73,7.18-3.56
				c1.86-5.67,4.05-13.11,4.52-18.88c0.87-12.08-5.32-29.28-9.01-36.77c-1.91,7.32-4.64,16.01-6.12,26.09
				c-0.55,3.73-0.35,8.2,0.41,12.85c0.9,5.51,1.94,8.48,3.67,13.67l1.94,5.82l-2.84-3.61C52.11,305.22,49.93,302.12,47.54,299.17
				L47.54,299.17z"/>
		</g>
	</g>
	<polygon id="XMLID_43_" display="inline" fill="#383A59" points="343.97,182.82 213.81,182.35 214.29,28.86 340.83,71.22 	"/>
	<polygon id="XMLID_42_" display="inline" fill="#383A59" points="212.79,351.51 88.24,260.78 82.95,182.08 214.3,182.18 	"/>
	<g id="XMLID_38_" display="inline">
		<path id="XMLID_39_" fill="#383A59" stroke="#EEF4FF" stroke-width="5" stroke-miterlimit="10" d="M215,358.27
			c-3.36,0-5.89-0.84-8.94-2.49C173.74,338.2,69.13,276.75,69.13,224.36V85.92c0-7.21,2.98-13.89,9.19-17.56
			c6.53-3.89,64.32-38.11,92.94-45.35c10.74-2.72,26.95-4.28,44.81-4.28c17.86,0,34.16,1.56,44.92,4.28
			c28.73,7.27,81.91,41.59,88.29,45.48c6.08,3.71,6.23,10.31,6.23,17.43v138.44c0,52.39-101.93,113.84-134.26,131.42
			C218.21,357.43,218.36,358.27,215,358.27z M89.59,84.41v145.38c0,18.6,56.33,65.54,122.73,103.4
			c66.4-37.86,122.73-84.8,122.73-103.4V84.23c-20.46-15.4-63.04-35.75-80.09-40.07c-8.48-2.15-23.28-3.48-39.56-3.48
			c-16.3,0-32.88,1.33-41.36,3.48C156.84,48.52,115.15,68.97,89.59,84.41z"/>
	</g>
	<g display="inline">
		<path fill="#383A59" d="M289.91,226.61h-26.13v14.06h24.06c1.77,0,3.09,0.4,3.96,1.19c0.87,0.79,1.31,1.84,1.31,3.14
			c0,1.3-0.43,2.36-1.29,3.18s-2.19,1.23-3.98,1.23h-24.06v16.29h27.03c1.82,0,3.2,0.42,4.12,1.27c0.92,0.85,1.39,1.97,1.39,3.38
			c0,1.35-0.46,2.46-1.39,3.3c-0.92,0.85-2.3,1.27-4.12,1.27h-31.52c-2.53,0-4.34-0.56-5.45-1.68c-1.11-1.12-1.66-2.93-1.66-5.43
			v-43.05c0-1.67,0.25-3.03,0.74-4.08c0.49-1.05,1.27-1.82,2.32-2.3c1.05-0.48,2.4-0.72,4.04-0.72h30.63c1.85,0,3.22,0.41,4.12,1.23
			s1.35,1.89,1.35,3.22c0,1.35-0.45,2.44-1.35,3.26S291.76,226.61,289.91,226.61z"/>
	</g>
	<g display="inline">
		<path fill="#383A59" d="M175.3,128.58c0,3.46-0.89,6.58-2.68,9.34c-1.78,2.76-4.39,4.92-7.83,6.48s-7.51,2.34-12.23,2.34
			c-5.65,0-10.31-1.07-13.98-3.2c-2.6-1.54-4.72-3.59-6.35-6.15c-1.63-2.56-2.44-5.06-2.44-7.48c0-1.41,0.49-2.61,1.46-3.61
			c0.98-1,2.22-1.5,3.73-1.5c1.22,0,2.26,0.39,3.11,1.17c0.85,0.78,1.57,1.94,2.17,3.48c0.73,1.82,1.52,3.35,2.36,4.57
			c0.85,1.22,2.04,2.23,3.57,3.03c1.54,0.79,3.55,1.19,6.05,1.19c3.44,0,6.23-0.8,8.38-2.4s3.22-3.6,3.22-6
			c0-1.9-0.58-3.44-1.74-4.63c-1.16-1.18-2.66-2.09-4.49-2.71s-4.29-1.29-7.36-1.99c-4.12-0.96-7.56-2.09-10.33-3.38
			s-4.97-3.05-6.6-5.27c-1.63-2.23-2.44-4.99-2.44-8.3c0-3.15,0.86-5.95,2.58-8.4c1.72-2.45,4.21-4.33,7.46-5.64
			c3.25-1.31,7.08-1.97,11.48-1.97c3.52,0,6.56,0.44,9.12,1.31c2.56,0.87,4.69,2.03,6.39,3.48c1.69,1.45,2.93,2.96,3.71,4.55
			c0.78,1.59,1.17,3.14,1.17,4.65c0,1.38-0.49,2.62-1.46,3.73c-0.98,1.11-2.19,1.66-3.65,1.66c-1.33,0-2.34-0.33-3.03-1
			c-0.69-0.66-1.44-1.75-2.25-3.26c-1.04-2.16-2.29-3.85-3.75-5.06c-1.46-1.21-3.8-1.82-7.03-1.82c-3,0-5.41,0.66-7.25,1.97
			c-1.84,1.32-2.75,2.9-2.75,4.75c0,1.15,0.31,2.14,0.94,2.97c0.63,0.83,1.48,1.55,2.58,2.15c1.09,0.6,2.2,1.07,3.32,1.41
			c1.12,0.34,2.97,0.83,5.55,1.48c3.23,0.76,6.15,1.59,8.77,2.5c2.62,0.91,4.84,2.02,6.68,3.32c1.84,1.3,3.27,2.95,4.3,4.94
			C174.78,123.25,175.3,125.69,175.3,128.58z"/>
	</g>
	<g display="inline">
		<path fill="#EEF4FF" stroke="#EEF4FF" stroke-miterlimit="10" d="M308.75,103.38c-1.11,0.37-2.21,0.74-3.3,1.1
			c-32.22,10.65-21.37,7.09-31.91,10.55c-10.48-3.47-20.97-6.92-31.44-10.42c-1.91-0.64-4.41,0.26-5.19,2.57
			c-0.72,2.11,0.38,4.44,2.52,5.17c3.23,1.11,6.47,2.16,9.71,3.23c8.14,2.7,16.27,5.4,24.4,8.11c11.58-3.86,23.17-7.7,34.76-11.54
			c0.18-0.06,0.35-0.18,0.59-0.11c0,0.49-0.01,0.99,0.01,1.49c0.01,0.28-0.18,0.31-0.36,0.37c-1.42,0.47-2.85,0.94-4.27,1.42
			c-10.04,3.32-20.08,6.63-30.12,9.96c-0.46,0.15-0.85,0.11-1.29-0.03c-10.26-3.4-20.52-6.77-30.78-10.2
			c-1.89-0.63-4.32,0.29-5.13,2.44c-0.77,2.05,0.2,4.38,2.24,5.22c0.84,0.35,1.72,0.6,2.58,0.89c10.59,3.51,21.17,7.01,31.76,10.53
			c11.59-3.85,23.19-7.69,34.78-11.53c0.17-0.06,0.33-0.14,0.58-0.13c0,0.53,0,1.06,0,1.58c0,0.23-0.18,0.25-0.32,0.3
			c-0.66,0.22-1.32,0.44-1.98,0.66c-10.84,3.58-21.68,7.16-32.51,10.75c-0.4,0.13-0.75,0.11-1.14-0.02
			c-10.28-3.4-20.56-6.78-30.82-10.22c-1.83-0.61-4.41,0.17-5.22,2.59c-0.71,2.13,0.45,4.43,2.61,5.18
			c1.59,0.54,3.19,1.06,4.78,1.59c9.75,3.23,19.5,6.46,29.25,9.7c11.55-3.84,23.1-7.67,34.65-11.49c0.22-0.07,0.43-0.18,0.71-0.18
			c0,0.52-0.01,1.03,0,1.55c0,0.23-0.17,0.25-0.31,0.29c-0.98,0.33-1.96,0.66-2.95,0.98c-10.7,3.54-21.4,7.09-32.09,10.64
			c-11.45-3.8-22.9-7.6-34.34-11.39c-3.16-1.05-4.69-3.62-4.19-7.98c0.01-0.07,0.04-0.14,0.09-0.19c2.28-2.24,2.26-2.14,3.1-2.64
			c-2.04-1.17-3.2-2.89-3.2-5.23c0-2.33,1.13-4.04,3.2-5.22c-0.18-0.11-0.31-0.2-0.45-0.29c-3.78-2.36-3.7-8.01,0.47-10.15
			c7.46-2.45,14.92-4.91,22.38-7.37c4.31-1.42,8.63-2.83,12.94-4.28c11.58,3.84,23.16,7.66,34.74,11.49
			C308.43,103.18,308.63,103.17,308.75,103.38z"/>
	</g>
	<g display="inline">
		<path fill="#EEF4FF" d="M173.46,237.95c-0.43,0.99-0.27,1.85-0.27,2.68c-0.01,9.07-0.03,18.15,0.02,27.22
			c0.01,1.47-0.17,2.15-1.69,2.15c-1.56,0-1.5-0.9-1.5-2.14c0.02-10.79,0-21.58,0.02-32.36c0-1.43-0.04-2.42-1.74-2.4
			c-1.62,0.02-1.97,0.69-1.96,2.39c0.06,10.79,0.02,21.57,0.04,32.36c0,1.23,0.05,2.19-1.51,2.14c-1.31-0.04-1.69-0.44-1.68-1.94
			c0.05-10.86,0-21.72,0.06-32.58c0.01-1.73-0.38-2.36-1.98-2.37c-1.62-0.01-1.85,0.81-1.84,2.34c0.03,10.79,0.02,21.58,0.01,32.36
			c0,1.01,0.28,2.14-1.29,2.18c-1.46,0.04-1.76-0.55-1.76-2.09c0.05-10.79,0-21.57,0.05-32.36c0.01-1.67-0.3-2.45-1.95-2.42
			c-1.5,0.03-1.93,0.58-1.92,2.25c0.05,10.5,0.03,21,0.03,31.51c0,0.5-0.04,1,0.01,1.5c0.11,1.21-0.34,1.63-1.4,1.6
			c-0.99-0.03-1.76-0.1-1.63-1.57c0.05-0.57,0-1.14,0-1.71c0-10.36-0.02-20.72,0.02-31.08c0.01-1.57-0.15-2.51-1.9-2.5
			c-1.67,0.01-1.93,0.77-1.93,2.43c0.05,10.79,0,21.57,0.05,32.36c0.01,1.51-0.22,2.19-1.73,2.1c-1.17-0.07-1.58-0.5-1.46-1.76
			c0.04-0.42,0.01-0.86,0.01-1.29c0-10.36-0.01-20.72,0.01-31.08c0-1.46,0.22-2.77-1.8-2.78c-1.94-0.01-1.88,1.14-1.88,2.68
			c0.02,10.72-0.01,21.43,0.04,32.15c0.01,1.57-0.32,2.09-1.77,2.07c-1.44-0.02-1.42-0.85-1.42-2.02
			c0.02-9.07,0.01-18.15,0.01-27.22c0-2.79,0.02-2.7-2.19-1.78c-4.66,1.93-8.92,0.73-12.61-2.78c-3.35-3.18-4.69-7.43-3.51-12.3
			c1.27-5.24,4.61-8.15,9.11-9.43c1.02-0.29,2.1-0.45,3.15-0.45c16.45-0.03,32.89-0.04,49.34,0c3.43,0.01,6.56,1.18,9.1,3.87
			c3.14,3.32,4.46,7.47,3.23,12.22c-1.36,5.29-4.78,8.16-9.38,9.39C179.03,240.32,176.16,239.71,173.46,237.95z M154.64,217.63
			c-8.44,0-16.87-0.05-25.31,0.02c-4.71,0.04-8.77,4.04-9.04,8.7c-0.28,4.71,3.04,8.88,7.82,9.81c0.67,0.13,1.37,0.14,2.05,0.11
			c2.98-0.12,5.49-2.61,5.57-5.49c0.08-2.74-2.28-5.36-5.18-5.74c-1.2-0.16-2.41,0.08-2.71,1.59c-0.31,1.59,0.85,2.09,1.95,2.26
			c1.16,0.18,1.72,0.82,1.53,2.13c-0.18,1.32-1.08,1.37-2.01,1.32c-2.52-0.14-4.59-2.37-4.73-5.1c-0.13-2.76,1.67-5.13,4.22-5.63
			c1.51-0.3,2.99,0.19,4.48,0.19c14.12-0.01,28.25-0.01,42.37,0c1.62,0,3.22-0.55,4.85-0.14c2.34,0.59,4.01,2.9,3.92,5.49
			c-0.09,2.6-1.91,4.8-4.28,5.11c-0.98,0.13-2.13,0.41-2.43-1.18c-0.31-1.63,0.6-2.06,1.81-2.27c0.88-0.16,1.75-0.66,1.7-1.91
			c-0.06-1.32-0.97-1.76-1.95-1.9c-2.44-0.35-5.25,1.9-5.85,4.63c-0.55,2.52,0.94,5.16,3.52,6.22c3.91,1.61,9.3-1.05,11.09-5.48
			c1.27-3.15,0.83-6.49-1.31-9.12c-2.02-2.49-4.57-3.63-7.53-3.63C171.02,217.62,162.83,217.62,154.64,217.63z M154.43,225.38
			c-5.12,0-10.23-0.01-15.35,0.02c-0.47,0-1.24-0.38-1.35,0.57c-0.19,1.61,1.63,3.74,3.11,3.74c8.92,0,17.85-0.07,26.77,0.06
			c1.85,0.03,2.69-0.51,3.32-2.58c0.54-1.78,0.14-1.85-1.15-1.84C164.66,225.41,159.55,225.38,154.43,225.38z"/>
	</g>
</g>
<g id="text_white">
	<g>
		<path fill="#EEF4FF" d="M657.46,153.37c0,7.36-1.9,13.97-5.69,19.84c-3.79,5.87-9.34,10.46-16.64,13.78s-15.97,4.98-25.98,4.98
			c-12.01,0-21.91-2.27-29.72-6.81c-5.53-3.26-10.03-7.62-13.49-13.07c-3.46-5.45-5.19-10.75-5.19-15.9c0-2.99,1.04-5.55,3.11-7.68
			c2.08-2.13,4.72-3.2,7.93-3.2c2.6,0,4.8,0.83,6.6,2.49c1.8,1.66,3.33,4.12,4.61,7.39c1.55,3.87,3.22,7.11,5.02,9.71
			c1.8,2.6,4.33,4.75,7.6,6.43c3.26,1.69,7.55,2.53,12.87,2.53c7.3,0,13.24-1.7,17.81-5.1s6.85-7.65,6.85-12.74
			c0-4.04-1.23-7.32-3.69-9.84c-2.46-2.52-5.64-4.44-9.55-5.77s-9.12-2.74-15.65-4.23c-8.74-2.05-16.06-4.44-21.96-7.18
			s-10.57-6.47-14.03-11.21c-3.46-4.73-5.19-10.61-5.19-17.64c0-6.7,1.83-12.64,5.48-17.85c3.65-5.2,8.94-9.2,15.85-11.99
			c6.92-2.79,15.05-4.19,24.4-4.19c7.47,0,13.93,0.93,19.38,2.78c5.45,1.85,9.97,4.32,13.57,7.39c3.6,3.07,6.23,6.3,7.89,9.67
			c1.66,3.38,2.49,6.67,2.49,9.88c0,2.93-1.04,5.58-3.11,7.93c-2.08,2.35-4.66,3.53-7.76,3.53c-2.82,0-4.97-0.71-6.43-2.12
			c-1.47-1.41-3.06-3.72-4.77-6.93c-2.21-4.59-4.87-8.18-7.97-10.75c-3.1-2.57-8.08-3.86-14.94-3.86c-6.36,0-11.5,1.4-15.4,4.19
			c-3.9,2.79-5.85,6.16-5.85,10.09c0,2.44,0.66,4.54,1.99,6.31c1.33,1.77,3.15,3.29,5.48,4.57c2.32,1.27,4.68,2.27,7.06,2.99
			c2.38,0.72,6.31,1.77,11.79,3.15c6.86,1.61,13.07,3.38,18.64,5.31c5.56,1.94,10.29,4.29,14.19,7.06c3.9,2.77,6.94,6.27,9.13,10.5
			C656.37,142.03,657.46,147.22,657.46,153.37z"/>
		<path fill="#EEF4FF" d="M688.26,89.28c-3.15,0-5.85-0.97-8.09-2.91c-2.24-1.94-3.36-4.68-3.36-8.22c0-3.21,1.15-5.85,3.45-7.93
			c2.29-2.08,4.97-3.11,8.01-3.11c2.93,0,5.53,0.94,7.8,2.82c2.27,1.88,3.4,4.62,3.4,8.22c0,3.49-1.11,6.21-3.32,8.18
			C693.93,88.3,691.3,89.28,688.26,89.28z M699.46,112.69v65.49c0,4.54-1.08,7.97-3.24,10.29s-4.9,3.49-8.22,3.49
			s-6.02-1.19-8.09-3.57c-2.08-2.38-3.11-5.78-3.11-10.21v-64.83c0-4.48,1.04-7.86,3.11-10.13c2.07-2.27,4.77-3.4,8.09-3.4
			s6.06,1.13,8.22,3.4C698.38,105.5,699.46,108.65,699.46,112.69z"/>
		<path fill="#EEF4FF" d="M795.84,162.33c0,6.25-1.52,11.61-4.57,16.06c-3.04,4.46-7.54,7.83-13.49,10.13s-13.18,3.44-21.71,3.44
			c-8.13,0-15.11-1.25-20.92-3.74s-10.1-5.6-12.87-9.34c-2.77-3.74-4.15-7.48-4.15-11.25c0-2.49,0.88-4.62,2.66-6.39
			c1.77-1.77,4.01-2.66,6.72-2.66c2.38,0,4.21,0.58,5.48,1.74c1.27,1.16,2.49,2.79,3.65,4.9c2.32,4.04,5.1,7.06,8.34,9.05
			c3.24,1.99,7.65,2.99,13.24,2.99c4.54,0,8.26-1.01,11.17-3.03c2.9-2.02,4.36-4.33,4.36-6.93c0-3.98-1.51-6.89-4.52-8.72
			c-3.02-1.83-7.98-3.57-14.9-5.23c-7.8-1.94-14.15-3.97-19.05-6.1c-4.9-2.13-8.81-4.94-11.75-8.43c-2.93-3.49-4.4-7.77-4.4-12.87
			c0-4.54,1.36-8.83,4.07-12.87c2.71-4.04,6.71-7.26,12-9.67c5.28-2.41,11.66-3.61,19.13-3.61c5.87,0,11.14,0.61,15.81,1.83
			c4.68,1.22,8.58,2.85,11.71,4.9c3.13,2.05,5.51,4.32,7.14,6.81c1.63,2.49,2.45,4.93,2.45,7.3c0,2.6-0.87,4.73-2.61,6.39
			c-1.74,1.66-4.22,2.49-7.43,2.49c-2.32,0-4.3-0.66-5.94-1.99s-3.5-3.32-5.6-5.98c-1.72-2.21-3.74-3.98-6.06-5.31
			s-5.48-1.99-9.46-1.99c-4.1,0-7.5,0.87-10.21,2.61c-2.71,1.74-4.07,3.92-4.07,6.52c0,2.38,1,4.33,2.99,5.85
			c1.99,1.52,4.68,2.78,8.05,3.78c3.38,1,8.02,2.21,13.95,3.65c7.03,1.72,12.77,3.76,17.22,6.14c4.46,2.38,7.83,5.19,10.13,8.43
			S795.84,158.18,795.84,162.33z"/>
		<path fill="#EEF4FF" d="M816.26,101.82h2.49V88.2c0-3.65,0.1-6.52,0.29-8.59c0.19-2.08,0.73-3.86,1.62-5.35
			c0.88-1.55,2.16-2.81,3.82-3.78c1.66-0.97,3.51-1.45,5.56-1.45c2.88,0,5.48,1.08,7.8,3.24c1.55,1.44,2.53,3.2,2.95,5.27
			c0.41,2.08,0.62,5.02,0.62,8.84v15.44h8.3c3.21,0,5.66,0.76,7.35,2.28c1.69,1.52,2.53,3.47,2.53,5.85c0,3.04-1.2,5.17-3.61,6.39
			c-2.41,1.22-5.85,1.83-10.33,1.83h-4.23v41.67c0,3.54,0.12,6.27,0.37,8.18c0.25,1.91,0.91,3.46,1.99,4.65
			c1.08,1.19,2.83,1.78,5.27,1.78c1.33,0,3.13-0.23,5.4-0.71c2.27-0.47,4.04-0.71,5.31-0.71c1.83,0,3.47,0.73,4.94,2.2
			c1.46,1.47,2.2,3.28,2.2,5.44c0,3.65-1.99,6.45-5.98,8.38s-9.71,2.91-17.18,2.91c-7.08,0-12.45-1.19-16.1-3.57
			s-6.05-5.67-7.18-9.88c-1.13-4.21-1.7-9.82-1.7-16.85v-43.5h-2.99c-3.27,0-5.76-0.77-7.47-2.32c-1.72-1.55-2.57-3.51-2.57-5.89
			c0-2.38,0.9-4.33,2.7-5.85C810.21,102.58,812.82,101.82,816.26,101.82z"/>
		<path fill="#EEF4FF" d="M938.44,151.46h-44.33c0.05,5.15,1.09,9.68,3.11,13.61c2.02,3.93,4.7,6.89,8.05,8.88s7.04,2.99,11.08,2.99
			c2.71,0,5.19-0.32,7.43-0.95c2.24-0.64,4.41-1.63,6.52-2.99c2.1-1.36,4.04-2.81,5.81-4.36c1.77-1.55,4.07-3.65,6.89-6.31
			c1.16-1,2.82-1.49,4.98-1.49c2.32,0,4.21,0.64,5.64,1.91c1.44,1.27,2.16,3.07,2.16,5.4c0,2.05-0.8,4.44-2.41,7.18
			c-1.61,2.74-4.03,5.37-7.26,7.89c-3.24,2.52-7.3,4.61-12.2,6.27c-4.9,1.66-10.53,2.49-16.89,2.49c-14.55,0-25.87-4.15-33.95-12.45
			c-8.08-8.3-12.12-19.56-12.12-33.78c0-6.7,1-12.91,2.99-18.64s4.9-10.64,8.72-14.73c3.82-4.09,8.52-7.23,14.11-9.42
			c5.59-2.19,11.79-3.28,18.59-3.28c8.85,0,16.45,1.87,22.79,5.6s11.08,8.56,14.24,14.48c3.15,5.92,4.73,11.95,4.73,18.1
			c0,5.7-1.63,9.39-4.9,11.08C948.96,150.61,944.36,151.46,938.44,151.46z M894.12,138.59h41.09c-0.55-7.75-2.64-13.54-6.27-17.39
			c-3.63-3.85-8.4-5.77-14.32-5.77c-5.64,0-10.28,1.95-13.9,5.85C897.09,125.18,894.89,130.95,894.12,138.59z"/>
		<path fill="#EEF4FF" d="M1051.58,147.55v30.13c0,4.76-1.08,8.33-3.24,10.71s-5.01,3.57-8.55,3.57c-3.43,0-6.21-1.19-8.34-3.57
			s-3.2-5.95-3.2-10.71v-36.11c0-5.7-0.19-10.13-0.58-13.28c-0.39-3.15-1.44-5.74-3.15-7.76c-1.72-2.02-4.43-3.03-8.13-3.03
			c-7.42,0-12.3,2.55-14.65,7.64c-2.35,5.09-3.53,12.4-3.53,21.91v30.63c0,4.7-1.07,8.26-3.2,10.67c-2.13,2.41-4.94,3.61-8.43,3.61
			c-3.43,0-6.24-1.2-8.43-3.61s-3.28-5.96-3.28-10.67v-64.83c0-4.26,0.98-7.5,2.95-9.71c1.96-2.21,4.55-3.32,7.76-3.32
			c3.1,0,5.69,1.04,7.76,3.11c2.07,2.08,3.11,4.94,3.11,8.59v2.16c3.93-4.7,8.13-8.16,12.62-10.38c4.48-2.21,9.46-3.32,14.94-3.32
			c5.7,0,10.6,1.13,14.69,3.4c4.09,2.27,7.47,5.7,10.13,10.29c3.82-4.65,7.91-8.09,12.29-10.33c4.37-2.24,9.21-3.36,14.53-3.36
			c6.2,0,11.54,1.22,16.02,3.65c4.48,2.44,7.83,5.92,10.04,10.46c1.94,4.1,2.91,10.54,2.91,19.34v44.24c0,4.76-1.08,8.33-3.24,10.71
			s-5.01,3.57-8.55,3.57c-3.43,0-6.24-1.2-8.43-3.61s-3.28-5.96-3.28-10.67v-38.1c0-4.87-0.21-8.77-0.62-11.7
			c-0.42-2.93-1.54-5.4-3.36-7.39s-4.59-2.99-8.3-2.99c-2.99,0-5.83,0.89-8.51,2.66c-2.68,1.77-4.77,4.15-6.27,7.14
			C1052.41,131.12,1051.58,137.87,1051.58,147.55z"/>
		<path fill="#EEF4FF" d="M1183.9,179.18c-5.48,4.26-10.78,7.46-15.9,9.59c-5.12,2.13-10.86,3.2-17.22,3.2
			c-5.81,0-10.92-1.15-15.31-3.44c-4.4-2.3-7.79-5.41-10.17-9.34c-2.38-3.93-3.57-8.19-3.57-12.78c0-6.2,1.96-11.48,5.89-15.85
			c3.93-4.37,9.32-7.3,16.19-8.8c1.44-0.33,5.01-1.08,10.71-2.24c5.7-1.16,10.58-2.23,14.65-3.2c4.07-0.97,8.48-2.14,13.24-3.53
			c-0.28-5.98-1.48-10.36-3.61-13.16c-2.13-2.79-6.54-4.19-13.24-4.19c-5.76,0-10.09,0.8-12.99,2.41c-2.91,1.61-5.4,4.01-7.47,7.22
			c-2.08,3.21-3.54,5.33-4.4,6.35c-0.86,1.02-2.7,1.54-5.52,1.54c-2.55,0-4.75-0.82-6.6-2.45c-1.85-1.63-2.78-3.72-2.78-6.27
			c0-3.98,1.41-7.86,4.23-11.62c2.82-3.76,7.22-6.86,13.2-9.3c5.98-2.43,13.42-3.65,22.33-3.65c9.96,0,17.79,1.18,23.49,3.53
			c5.7,2.35,9.72,6.07,12.08,11.16c2.35,5.09,3.53,11.84,3.53,20.25c0,5.31-0.01,9.82-0.04,13.53c-0.03,3.71-0.07,7.83-0.12,12.37
			c0,4.26,0.71,8.7,2.12,13.32c1.41,4.62,2.12,7.6,2.12,8.92c0,2.32-1.09,4.44-3.28,6.35c-2.19,1.91-4.66,2.86-7.43,2.86
			c-2.32,0-4.62-1.09-6.89-3.28C1188.85,186.5,1186.44,183.33,1183.9,179.18z M1182.4,146.39c-3.32,1.22-8.15,2.5-14.49,3.86
			c-6.34,1.36-10.72,2.35-13.16,2.99c-2.44,0.64-4.76,1.88-6.97,3.74c-2.21,1.85-3.32,4.44-3.32,7.76c0,3.43,1.3,6.35,3.9,8.76
			c2.6,2.41,6,3.61,10.21,3.61c4.48,0,8.62-0.98,12.41-2.95c3.79-1.96,6.57-4.5,8.34-7.6c2.05-3.43,3.07-9.08,3.07-16.93V146.39z"/>
	</g>
	<g>
		<path fill="#EEF4FF" d="M653.63,259.51H593.2v32.52h55.64c4.09,0,7.15,0.92,9.17,2.76c2.02,1.84,3.03,4.26,3.03,7.27
			c0,3.01-0.99,5.46-2.98,7.36c-1.99,1.9-5.06,2.85-9.21,2.85H593.2v37.67h62.51c4.21,0,7.39,0.98,9.53,2.94
			c2.14,1.96,3.21,4.56,3.21,7.81c0,3.13-1.07,5.68-3.21,7.63c-2.14,1.96-5.31,2.94-9.53,2.94h-72.9c-5.84,0-10.04-1.29-12.6-3.88
			c-2.56-2.59-3.84-6.77-3.84-12.56v-99.55c0-3.85,0.57-7,1.72-9.44c1.14-2.44,2.94-4.21,5.37-5.33c2.44-1.11,5.56-1.67,9.35-1.67
			h70.82c4.28,0,7.45,0.95,9.53,2.85c2.08,1.9,3.12,4.38,3.12,7.45c0,3.13-1.04,5.65-3.12,7.54
			C661.08,258.56,657.9,259.51,653.63,259.51z"/>
		<path fill="#EEF4FF" d="M767.45,341.26c0,6.81-1.66,12.63-4.97,17.48c-3.31,4.85-8.21,8.52-14.68,11.02
			c-6.47,2.5-14.35,3.75-23.62,3.75c-8.85,0-16.44-1.35-22.76-4.06s-10.99-6.1-14-10.16c-3.01-4.07-4.52-8.14-4.52-12.24
			c0-2.71,0.96-5.03,2.89-6.96c1.93-1.93,4.37-2.89,7.32-2.89c2.59,0,4.58,0.63,5.96,1.9c1.38,1.26,2.71,3.04,3.97,5.33
			c2.53,4.4,5.55,7.68,9.08,9.85s8.32,3.25,14.41,3.25c4.94,0,8.99-1.1,12.15-3.3c3.16-2.2,4.74-4.71,4.74-7.54
			c0-4.34-1.64-7.5-4.92-9.48c-3.28-1.99-8.69-3.88-16.21-5.69c-8.49-2.11-15.4-4.32-20.73-6.64c-5.33-2.32-9.59-5.37-12.78-9.17
			c-3.19-3.79-4.79-8.46-4.79-14c0-4.94,1.48-9.6,4.43-14c2.95-4.4,7.3-7.9,13.05-10.52c5.75-2.62,12.69-3.93,20.82-3.93
			c6.38,0,12.12,0.66,17.21,1.99c5.09,1.33,9.33,3.1,12.74,5.33c3.4,2.23,5.99,4.7,7.77,7.41c1.78,2.71,2.66,5.36,2.66,7.95
			c0,2.83-0.95,5.15-2.85,6.96s-4.59,2.71-8.08,2.71c-2.53,0-4.68-0.72-6.46-2.17c-1.78-1.45-3.81-3.61-6.1-6.5
			c-1.87-2.41-4.06-4.34-6.59-5.78s-5.96-2.17-10.3-2.17c-4.46,0-8.16,0.95-11.11,2.85c-2.95,1.9-4.43,4.26-4.43,7.09
			c0,2.59,1.08,4.71,3.25,6.37c2.17,1.66,5.09,3.03,8.76,4.11c3.67,1.08,8.73,2.41,15.18,3.98c7.65,1.87,13.9,4.1,18.74,6.68
			c4.85,2.59,8.52,5.65,11.02,9.17C766.2,332.72,767.45,336.74,767.45,341.26z"/>
		<path fill="#EEF4FF" d="M876.75,342.98c0,3.07-0.92,6.35-2.76,9.85c-1.84,3.49-4.64,6.82-8.4,9.98
			c-3.76,3.16-8.51,5.71-14.23,7.63c-5.72,1.93-12.17,2.89-19.33,2.89c-15.24,0-27.13-4.44-35.68-13.32
			c-8.55-8.88-12.83-20.79-12.83-35.73c0-10.12,1.96-19.06,5.87-26.83c3.91-7.77,9.58-13.78,16.98-18.02
			c7.41-4.25,16.26-6.37,26.56-6.37c6.38,0,12.24,0.93,17.57,2.8c5.33,1.87,9.85,4.28,13.55,7.23c3.7,2.95,6.53,6.1,8.49,9.44
			c1.96,3.34,2.94,6.46,2.94,9.35c0,2.95-1.1,5.45-3.3,7.5c-2.2,2.05-4.86,3.07-7.99,3.07c-2.05,0-3.75-0.53-5.1-1.58
			c-1.36-1.05-2.88-2.76-4.56-5.1c-3.01-4.58-6.16-8.01-9.44-10.3c-3.28-2.29-7.45-3.43-12.51-3.43c-7.29,0-13.16,2.85-17.61,8.54
			c-4.46,5.69-6.69,13.47-6.69,23.35c0,4.64,0.57,8.9,1.72,12.78c1.14,3.88,2.8,7.2,4.97,9.94c2.17,2.74,4.79,4.82,7.86,6.23
			c3.07,1.42,6.44,2.12,10.12,2.12c4.94,0,9.17-1.14,12.69-3.43c3.52-2.29,6.64-5.78,9.35-10.48c1.5-2.77,3.13-4.94,4.88-6.5
			c1.75-1.57,3.88-2.35,6.41-2.35c3.01,0,5.51,1.14,7.5,3.43C875.76,337.95,876.75,340.39,876.75,342.98z"/>
		<path fill="#EEF4FF" d="M990.57,323.37c0,7.35-1.14,14.12-3.43,20.33c-2.29,6.2-5.6,11.53-9.94,15.99
			c-4.34,4.46-9.52,7.87-15.54,10.25c-6.02,2.38-12.8,3.57-20.33,3.57c-7.47,0-14.18-1.21-20.14-3.61
			c-5.96-2.41-11.13-5.86-15.49-10.34c-4.37-4.49-7.68-9.79-9.94-15.9c-2.26-6.11-3.39-12.87-3.39-20.28
			c0-7.47,1.14-14.3,3.43-20.51c2.29-6.2,5.57-11.5,9.85-15.9c4.28-4.4,9.45-7.78,15.54-10.16c6.08-2.38,12.79-3.57,20.14-3.57
			c7.47,0,14.24,1.21,20.33,3.61c6.08,2.41,11.29,5.84,15.63,10.3c4.34,4.46,7.63,9.76,9.89,15.9
			C989.44,309.19,990.57,315.97,990.57,323.37z M965.82,323.37c0-10.06-2.21-17.89-6.64-23.49c-4.43-5.6-10.38-8.4-17.84-8.4
			c-4.82,0-9.06,1.25-12.74,3.75c-3.67,2.5-6.5,6.19-8.49,11.07c-1.99,4.88-2.98,10.57-2.98,17.07c0,6.44,0.98,12.08,2.94,16.89
			c1.96,4.82,4.76,8.51,8.4,11.07c3.64,2.56,7.93,3.84,12.87,3.84c7.47,0,13.41-2.81,17.84-8.45
			C963.6,341.09,965.82,333.31,965.82,323.37z"/>
		<path fill="#EEF4FF" d="M1009.99,358.51V251.56c0-4.94,1.1-8.67,3.3-11.2c2.2-2.53,5.16-3.79,8.9-3.79s6.74,1.25,9.03,3.75
			c2.29,2.5,3.43,6.25,3.43,11.25v106.95c0,5-1.16,8.75-3.48,11.25s-5.32,3.75-8.99,3.75c-3.61,0-6.55-1.29-8.81-3.88
			S1009.99,363.33,1009.99,358.51z"/>
		<path fill="#EEF4FF" d="M1122.45,359.6c-5.96,4.64-11.73,8.12-17.3,10.43c-5.57,2.32-11.82,3.48-18.74,3.48
			c-6.32,0-11.88-1.25-16.67-3.75c-4.79-2.5-8.48-5.89-11.07-10.16c-2.59-4.28-3.88-8.91-3.88-13.91c0-6.74,2.14-12.5,6.41-17.25
			c4.28-4.76,10.15-7.95,17.62-9.58c1.57-0.36,5.45-1.17,11.65-2.44c6.2-1.26,11.52-2.42,15.94-3.48c4.43-1.05,9.23-2.33,14.41-3.84
			c-0.3-6.5-1.61-11.28-3.93-14.32c-2.32-3.04-7.12-4.56-14.41-4.56c-6.26,0-10.98,0.87-14.14,2.62c-3.16,1.75-5.87,4.37-8.13,7.86
			c-2.26,3.49-3.86,5.8-4.79,6.91c-0.93,1.11-2.94,1.67-6.01,1.67c-2.77,0-5.16-0.89-7.18-2.67c-2.02-1.78-3.03-4.05-3.03-6.82
			c0-4.34,1.54-8.55,4.61-12.65c3.07-4.09,7.86-7.47,14.36-10.12c6.5-2.65,14.6-3.97,24.3-3.97c10.84,0,19.36,1.28,25.56,3.84
			c6.2,2.56,10.58,6.61,13.14,12.15c2.56,5.54,3.84,12.89,3.84,22.04c0,5.78-0.01,10.69-0.04,14.72c-0.03,4.04-0.08,8.52-0.13,13.46
			c0,4.64,0.77,9.47,2.3,14.5c1.54,5.03,2.3,8.27,2.3,9.71c0,2.53-1.19,4.83-3.57,6.91c-2.38,2.08-5.07,3.12-8.08,3.12
			c-2.53,0-5.03-1.19-7.5-3.57C1127.84,367.56,1125.22,364.11,1122.45,359.6z M1120.83,323.92c-3.61,1.33-8.87,2.73-15.76,4.2
			c-6.9,1.48-11.67,2.56-14.32,3.25c-2.65,0.69-5.18,2.05-7.59,4.07c-2.41,2.02-3.61,4.83-3.61,8.45c0,3.74,1.41,6.91,4.25,9.53
			c2.83,2.62,6.53,3.93,11.11,3.93c4.88,0,9.38-1.07,13.5-3.21c4.12-2.14,7.15-4.89,9.08-8.26c2.23-3.73,3.34-9.88,3.34-18.43
			V323.92z"/>
		<path fill="#EEF4FF" d="M1194.54,337.92v20.6c0,5-1.17,8.75-3.52,11.25c-2.35,2.5-5.33,3.75-8.94,3.75
			c-3.55,0-6.47-1.26-8.76-3.79c-2.29-2.53-3.43-6.26-3.43-11.2v-68.65c0-11.08,4-16.62,12.01-16.62c4.09,0,7.05,1.3,8.85,3.88
			c1.81,2.59,2.8,6.41,2.98,11.47c2.95-5.06,5.98-8.88,9.08-11.47c3.1-2.59,7.24-3.88,12.42-3.88c5.18,0,10.21,1.3,15.09,3.88
			c4.88,2.59,7.32,6.02,7.32,10.3c0,3.01-1.04,5.5-3.12,7.45c-2.08,1.96-4.32,2.94-6.73,2.94c-0.9,0-3.09-0.56-6.55-1.67
			c-3.46-1.11-6.52-1.67-9.17-1.67c-3.61,0-6.56,0.95-8.85,2.85c-2.29,1.9-4.06,4.71-5.33,8.45c-1.26,3.73-2.14,8.18-2.62,13.32
			C1194.78,324.23,1194.54,330.51,1194.54,337.92z"/>
	</g>
</g>
<g id="line_white">
	<path fill="#EEF4FF" d="M493.42,325c0,4.4-3.38,8-7.5,8s-7.5-3.6-7.5-8V111c0-4.4,3.38-8,7.5-8s7.5,3.6,7.5,8V325z"/>
</g>
<g id="logo_white">
	<g id="XMLID_7_">
		<g id="XMLID_14_">
			<path id="XMLID_19_" fill-rule="evenodd" fill="#EEF4FF" d="M238.23,393.15c5.34-0.8,10.7-1.28,14.58-0.96
				c6.41,0.59,13.12,3.48,18.57,7.18c5.3,3.78,9.67,8.2,11.34,12.1c-9.75,3.48-23.61,5.66-34.88,5.58
				c-10.32,0.08-21.79-8.53-26.06-18.1c-1.93-4.34-5.46-3.84-3.32-8.58c2.81-6.24,6.74-14.24,10.79-19.5
				c8.64-10.9,27.21-20.67,36.15-24.15c-4.06,7.67-8.48,17.15-15.04,26.85c-2.42,3.58-6.06,7.22-10.31,10.56
				c-5.04,3.96-8.22,5.67-13.71,8.73l-6.15,3.43l5.2-0.85C229.68,394.74,233.93,393.8,238.23,393.15L238.23,393.15z"/>
			<path id="XMLID_18_" fill-rule="evenodd" fill="#EEF4FF" d="M319.07,360.44c4.26-2.63,8.66-4.99,12.08-6.13
				c5.68-1.84,12.44-1.8,18.45-0.64c5.89,1.3,11.23,3.48,14.07,6.18c-7.05,6.51-18.07,13.42-27.71,17.45
				c-8.77,3.82-21.68,0.66-28.8-5.95c-3.22-2.99-6.05-1.29-5.96-6.11c0.13-6.34,0.56-14.58,2.11-20.55
				c3.39-12.43,15.67-27.52,22.02-33.74c-0.67,8.02-0.98,17.71-3.04,28.36c-0.77,3.94-2.55,8.36-4.95,12.76
				c-2.85,5.21-4.93,7.82-8.5,12.43l-4,5.17l4.13-2.62C312.36,364.89,315.64,362.55,319.07,360.44L319.07,360.44z"/>
			<path id="XMLID_17_" fill-rule="evenodd" fill="#EEF4FF" d="M281.38,377.55c4.71-1.68,9.49-3.08,13.08-3.49
				c5.93-0.61,12.55,0.82,18.17,3.22c5.49,2.49,10.26,5.73,12.48,8.97c-8.25,4.91-20.46,9.37-30.72,11.31
				c-9.37,1.92-21.34-3.86-26.94-11.81c-2.53-3.6-5.64-2.52-4.55-7.21c1.44-6.18,3.58-14.15,6.34-19.67
				c5.91-11.45,21.05-23.65,28.55-28.43c-2.32,7.71-4.65,17.12-8.88,27.11c-1.56,3.69-4.22,7.65-7.49,11.45
				c-3.87,4.51-6.46,6.63-10.9,10.39l-4.99,4.22l4.58-1.7C273.88,380.51,277.58,378.9,281.38,377.55L281.38,377.55z"/>
			<path id="XMLID_16_" fill-rule="evenodd" fill="#EEF4FF" d="M350.3,333.36c3.73-2.87,7.61-5.49,10.7-6.89
				c5.13-2.26,11.46-2.89,17.18-2.37c5.63,0.65,10.83,2.17,13.75,4.43c-5.96,6.77-15.6,14.28-24.22,18.98
				c-7.82,4.41-20.2,2.7-27.49-2.78c-3.3-2.49-5.78-0.63-6.15-5.14c-0.49-5.94-0.88-13.69-0.01-19.41
				c1.97-11.94,11.99-27.23,17.33-33.66c0.15,7.56,0.78,16.65-0.12,26.8c-0.34,3.75-1.57,8.06-3.39,12.41
				c-2.16,5.14-3.86,7.79-6.75,12.44l-3.24,5.21l3.61-2.85C344.45,338.17,347.3,335.66,350.3,333.36L350.3,333.36z"/>
			<path id="XMLID_15_" fill-rule="evenodd" fill="#EEF4FF" d="M377.02,301.09c2.96-3.65,6.12-7.11,8.79-9.18
				c4.47-3.39,10.48-5.47,16.16-6.31c5.62-0.68,11.03-0.41,14.4,1.11c-4.23,7.97-11.84,17.51-19.13,24.09
				c-6.59,6.12-19.02,7.34-27.4,3.7c-3.79-1.65-5.76,0.73-7.17-3.56c-1.87-5.67-4.05-13.11-4.53-18.88
				c-0.86-12.08,5.32-29.28,9.01-36.77c1.91,7.32,4.64,16.01,6.13,26.09c0.54,3.73,0.35,8.2-0.41,12.85
				c-0.9,5.51-1.94,8.48-3.67,13.67l-1.94,5.82l2.84-3.61C372.46,307.13,374.64,304.04,377.02,301.09L377.02,301.09z"/>
		</g>
		<g id="XMLID_8_">
			<path id="XMLID_13_" fill-rule="evenodd" fill="#EEF4FF" d="M186.28,393.15c-5.34-0.8-10.69-1.28-14.58-0.96
				c-6.41,0.59-13.12,3.48-18.57,7.18c-5.29,3.78-9.67,8.2-11.34,12.1c9.76,3.48,23.62,5.66,34.89,5.58
				c10.31,0.08,21.79-8.53,26.06-18.1c1.93-4.34,5.45-3.84,3.32-8.58c-2.81-6.24-6.73-14.24-10.8-19.5
				c-8.63-10.9-27.21-20.67-36.15-24.15c4.06,7.67,8.48,17.15,15.04,26.85c2.43,3.58,6.06,7.22,10.32,10.56
				c5.03,3.96,8.22,5.67,13.7,8.73l6.16,3.43l-5.2-0.85C194.83,394.74,190.58,393.8,186.28,393.15L186.28,393.15z"/>
			<path id="XMLID_12_" fill-rule="evenodd" fill="#EEF4FF" d="M105.44,360.44c-4.25-2.63-8.65-4.99-12.07-6.13
				c-5.68-1.84-12.45-1.8-18.45-0.64c-5.89,1.3-11.23,3.48-14.07,6.18c7.05,6.51,18.07,13.42,27.7,17.45
				c8.77,3.82,21.68,0.66,28.81-5.95c3.22-2.99,6.05-1.29,5.95-6.11c-0.13-6.34-0.56-14.58-2.11-20.55
				c-3.4-12.43-15.67-27.52-22.02-33.74c0.66,8.02,0.98,17.71,3.05,28.36c0.76,3.94,2.54,8.36,4.94,12.76
				c2.85,5.21,4.94,7.82,8.51,12.43l4,5.17l-4.13-2.62C112.15,364.89,108.87,362.55,105.44,360.44L105.44,360.44z"/>
			<path id="XMLID_11_" fill-rule="evenodd" fill="#EEF4FF" d="M143.13,377.55c-4.71-1.68-9.5-3.08-13.08-3.49
				c-5.94-0.61-12.55,0.82-18.17,3.22c-5.49,2.49-10.27,5.73-12.48,8.97c8.25,4.91,20.46,9.37,30.72,11.31
				c9.37,1.92,21.35-3.86,26.94-11.81c2.53-3.6,5.65-2.52,4.55-7.21c-1.44-6.18-3.58-14.15-6.34-19.67
				c-5.9-11.45-21.05-23.65-28.55-28.43c2.32,7.71,4.64,17.12,8.87,27.11c1.56,3.69,4.22,7.65,7.49,11.45
				c3.86,4.51,6.45,6.63,10.9,10.39l4.98,4.22l-4.58-1.7C150.62,380.51,146.93,378.9,143.13,377.55L143.13,377.55z"/>
			<path id="XMLID_10_" fill-rule="evenodd" fill="#EEF4FF" d="M74.21,333.36c-3.73-2.87-7.61-5.49-10.7-6.89
				c-5.13-2.26-11.46-2.89-17.18-2.37c-5.63,0.65-10.83,2.17-13.75,4.43c5.97,6.77,15.6,14.28,24.22,18.98
				c7.82,4.41,20.2,2.7,27.5-2.78c3.3-2.49,5.78-0.63,6.15-5.14c0.49-5.94,0.89-13.69,0.01-19.41c-1.98-11.94-12-27.23-17.33-33.66
				c-0.15,7.56-0.79,16.65,0.11,26.8c0.34,3.75,1.57,8.06,3.4,12.41c2.16,5.14,3.86,7.79,6.75,12.44l3.24,5.21l-3.6-2.85
				C80.05,338.17,77.21,335.66,74.21,333.36L74.21,333.36z"/>
			<path id="XMLID_9_" fill-rule="evenodd" fill="#EEF4FF" d="M47.48,301.09c-2.95-3.65-6.11-7.11-8.79-9.18
				c-4.46-3.39-10.48-5.47-16.15-6.31c-5.63-0.68-11.04-0.41-14.4,1.11c4.22,7.97,11.84,17.51,19.13,24.09
				c6.58,6.12,19.01,7.34,27.39,3.7c3.79-1.65,5.76,0.73,7.18-3.56c1.86-5.67,4.05-13.11,4.52-18.88
				c0.87-12.08-5.32-29.28-9.01-36.77c-1.91,7.32-4.64,16.01-6.12,26.09c-0.55,3.73-0.35,8.2,0.41,12.85
				c0.9,5.51,1.94,8.48,3.67,13.67l1.94,5.82l-2.84-3.61C52.05,307.13,49.87,304.04,47.48,301.09L47.48,301.09z"/>
		</g>
	</g>
	<g id="XMLID_1_">
		<path id="XMLID_2_" fill="#EEF4FF" d="M214.94,360.19c-3.36,0-5.89-0.84-8.94-2.49c-32.32-17.58-136.93-79.03-136.93-131.42V87.84
			c0-7.21,2.98-13.89,9.19-17.56c6.53-3.89,64.32-38.11,92.94-45.35c10.74-2.72,26.95-4.28,44.81-4.28
			c17.86,0,34.16,1.56,44.92,4.28c28.73,7.27,81.91,41.59,88.29,45.48c6.08,3.71,6.23,10.31,6.23,17.43v138.44
			c0,52.39-101.93,113.84-134.26,131.42C218.15,359.35,218.3,360.19,214.94,360.19z M89.53,86.33V231.7
			c0,18.6,56.33,65.54,122.73,103.4c66.4-37.86,122.73-84.8,122.73-103.4V86.14c-20.46-15.4-63.04-35.75-80.09-40.07
			c-8.48-2.15-23.28-3.48-39.56-3.48c-16.3,0-32.88,1.33-41.36,3.48C156.78,50.43,115.1,70.88,89.53,86.33z"/>
	</g>
	<g>
		<path fill="#EEF4FF" d="M289.85,228.52h-26.13v14.06h24.06c1.77,0,3.09,0.4,3.96,1.19c0.87,0.79,1.31,1.84,1.31,3.14
			c0,1.3-0.43,2.36-1.29,3.18s-2.19,1.23-3.98,1.23h-24.06v16.29h27.03c1.82,0,3.2,0.42,4.12,1.27c0.92,0.85,1.39,1.97,1.39,3.38
			c0,1.35-0.46,2.46-1.39,3.3c-0.92,0.85-2.3,1.27-4.12,1.27h-31.52c-2.53,0-4.34-0.56-5.45-1.68c-1.11-1.12-1.66-2.93-1.66-5.43
			v-43.05c0-1.67,0.25-3.03,0.74-4.08c0.49-1.05,1.27-1.82,2.32-2.3c1.05-0.48,2.4-0.72,4.04-0.72h30.63c1.85,0,3.22,0.41,4.12,1.23
			s1.35,1.89,1.35,3.22c0,1.35-0.45,2.44-1.35,3.26S291.7,228.52,289.85,228.52z"/>
	</g>
	<g>
		<path fill="#EEF4FF" d="M175.24,130.5c0,3.46-0.89,6.58-2.68,9.34c-1.78,2.76-4.39,4.92-7.83,6.48s-7.51,2.34-12.23,2.34
			c-5.65,0-10.31-1.07-13.98-3.2c-2.6-1.54-4.72-3.59-6.35-6.15c-1.63-2.56-2.44-5.06-2.44-7.48c0-1.41,0.49-2.61,1.46-3.61
			c0.98-1,2.22-1.5,3.73-1.5c1.22,0,2.26,0.39,3.11,1.17c0.85,0.78,1.57,1.94,2.17,3.48c0.73,1.82,1.52,3.35,2.36,4.57
			c0.85,1.22,2.04,2.23,3.57,3.03c1.54,0.79,3.55,1.19,6.05,1.19c3.44,0,6.23-0.8,8.38-2.4s3.22-3.6,3.22-6
			c0-1.9-0.58-3.44-1.74-4.63c-1.16-1.18-2.66-2.09-4.49-2.71s-4.29-1.29-7.36-1.99c-4.12-0.96-7.56-2.09-10.33-3.38
			s-4.97-3.05-6.6-5.27c-1.63-2.23-2.44-4.99-2.44-8.3c0-3.15,0.86-5.95,2.58-8.4c1.72-2.45,4.21-4.33,7.46-5.64
			c3.25-1.31,7.08-1.97,11.48-1.97c3.52,0,6.56,0.44,9.12,1.31c2.56,0.87,4.69,2.03,6.39,3.48c1.69,1.45,2.93,2.96,3.71,4.55
			c0.78,1.59,1.17,3.14,1.17,4.65c0,1.38-0.49,2.62-1.46,3.73c-0.98,1.11-2.19,1.66-3.65,1.66c-1.33,0-2.34-0.33-3.03-1
			c-0.69-0.66-1.44-1.75-2.25-3.26c-1.04-2.16-2.29-3.85-3.75-5.06c-1.46-1.21-3.8-1.82-7.03-1.82c-3,0-5.41,0.66-7.25,1.97
			c-1.84,1.32-2.75,2.9-2.75,4.75c0,1.15,0.31,2.14,0.94,2.97c0.63,0.83,1.48,1.55,2.58,2.15c1.09,0.6,2.2,1.07,3.32,1.41
			c1.12,0.34,2.97,0.83,5.55,1.48c3.23,0.76,6.15,1.59,8.77,2.5c2.62,0.91,4.84,2.02,6.68,3.32c1.84,1.3,3.27,2.95,4.3,4.94
			C174.73,125.17,175.24,127.61,175.24,130.5z"/>
	</g>
	<g id="books">
	</g>
	<path fill="#EEF4FF" d="M340.83,73.22L214.29,30.86l-0.48,153.48l130.16,0.47L340.83,73.22z M236.62,131.23
		c0.15,1.65,1.18,2.57,2.69,3.07c6.43,2.13,12.86,4.28,19.28,6.42c4.32,1.44,8.62,2.9,12.96,4.27c0.76,0.24,1.73,0.24,2.49-0.01
		c10.9-3.57,21.77-7.2,32.66-10.81c0.59-0.19,1.2-0.32,1.9-0.51c0.41,2.87,0.41,2.87-2.09,3.71c-10.7,3.56-21.39,7.14-32.11,10.63
		c-0.98,0.32-2.23,0.32-3.21,0c-10.76-3.5-21.5-7.08-32.24-10.65c-4.18-1.39-5.91-4.18-5.3-8.58c0.06-0.43,0.36-0.87,0.64-1.23
		c0.51-0.65,1.09-1.24,1.73-1.96c-1.38-1.3-2.43-2.94-2.41-5.13c0.02-2.14,0.96-3.79,2.55-5.21c-2.21-2-3.11-4.37-2.22-7.23
		c0.61-1.97,1.92-3.33,3.91-3.99c11.34-3.75,22.69-7.5,34.04-11.22c0.55-0.18,1.26-0.16,1.8,0.02c11.2,3.67,22.39,7.38,33.57,11.1
		c0.58,0.19,1.07,0.64,1.61,0.96c-0.02,0.14-0.05,0.29-0.07,0.43c-2.41,0.8-4.83,1.6-7.24,2.4c-9.14,3.02-18.27,6.07-27.43,9.04
		c-0.83,0.27-1.9,0.25-2.74-0.02c-9.85-3.2-19.67-6.48-29.51-9.71c-0.68-0.22-1.42-0.43-2.11-0.39c-1.67,0.09-2.95,1.36-3.14,2.92
		c-0.22,1.75,0.65,3.17,2.46,3.8c3.2,1.11,6.42,2.16,9.64,3.22c7.52,2.5,15.03,5.02,22.57,7.45c0.89,0.29,2.03,0.31,2.91,0.02
		c10.66-3.48,21.29-7.04,31.94-10.56c0.79-0.26,1.63-0.36,2.47-0.53c0.34,2.76,0.34,2.76-1.99,3.54
		c-10.65,3.54-21.29,7.11-31.96,10.56c-1.15,0.37-2.62,0.36-3.77-0.01c-9.76-3.15-19.47-6.43-29.21-9.65
		c-2.94-0.97-5.34,0.73-5.03,3.56c0.18,1.58,1.2,2.45,2.65,2.93c5.78,1.91,11.55,3.85,17.33,5.77c4.87,1.62,9.72,3.27,14.62,4.8
		c0.93,0.29,2.11,0.31,3.04,0.01c10.81-3.52,21.59-7.13,32.39-10.67c0.61-0.2,1.75-0.26,1.97,0.06c0.68,1.02-0.02,2.42-1.22,2.82
		c-11.16,3.7-22.31,7.41-33.49,11.03c-0.91,0.3-2.12,0.09-3.08-0.22c-9.74-3.18-19.46-6.43-29.2-9.65
		C238.8,126.85,236.37,128.5,236.62,131.23z"/>
	<g>
		<path fill="#EEF4FF" d="M179.39,220.07c-8.33-0.06-16.65-0.02-24.98-0.02c-8.33,0-16.65-0.04-24.98,0.02
			c-5,0.04-9.12,4.42-8.88,9.29c0.25,5.1,4.65,9.07,9.69,8.74c2.68-0.17,4.9-2.18,5.19-4.68c0.3-2.62-1.47-5.22-4.11-5.85
			c-1.18-0.28-2.59-0.56-3.11,1.03c-0.5,1.53,0.69,1.79,1.81,2.34c0.71,0.34,0.98,1.59,1.45,2.43c-0.82,0.42-1.65,1.22-2.44,1.18
			c-2.49-0.14-4.37-2.35-4.55-4.98c-0.19-2.83,1.3-5.31,3.85-5.73c1.81-0.3,3.71-0.02,5.56-0.04c14.91-0.11,29.82-0.22,44.73-0.35
			c3.08-0.03,5.53,2.09,5.72,5.05c0.21,3.36-1.58,5.65-4.77,6.09c-1.59,0.22-2.85-1.11-2.16-2.46c0.33-0.64,1.38-0.88,1.96-1.44
			c0.54-0.53,1.22-1.25,1.22-1.89c0-0.46-0.95-1.1-1.59-1.33c-0.55-0.19-1.3-0.02-1.89,0.18c-2.34,0.8-4,3.44-3.71,5.76
			c0.3,2.48,2.57,4.53,5.21,4.69c4.99,0.32,9.4-3.65,9.72-8.75C188.62,224.63,184.35,220.1,179.39,220.07z"/>
		<path fill="#EEF4FF" d="M141.93,231.6c8.38,0.01,16.77,0.01,25.15,0c2.63,0,3.27-0.66,3.5-3.56c-10.95,0-21.77,0-32.65,0
			C138.54,230.88,139.38,231.6,141.93,231.6z"/>
		<path fill="#EEF4FF" d="M82.95,184.08l5.29,78.7l124.55,90.73l1.51-169.33L82.95,184.08z M181.04,241.83
			c-2.43,0.38-5.04-0.43-7.78-0.72c0,0.29,0,0.99,0,1.68c0.01,8.59,0.02,17.18,0.01,25.76c0,0.79,0.09,1.7-0.27,2.32
			c-0.31,0.54-1.19,1.03-1.82,1.02c-0.48,0-1.16-0.72-1.38-1.27c-0.25-0.63-0.11-1.42-0.11-2.14c0-9.81,0.01-19.63,0.02-29.44
			c0-0.72,0.16-1.53-0.11-2.14c-0.26-0.59-1.06-1.42-1.46-1.35c-0.64,0.12-1.31,0.83-1.65,1.46c-0.27,0.51-0.07,1.27-0.07,1.92
			c0,10.1,0,20.21,0,30.31c0,1.3,0.23,2.81-1.79,2.73c-1.9-0.07-1.82-1.52-1.82-2.84c0.01-10.1,0.04-20.21,0.06-30.31
			c0-0.72,0.15-1.52-0.11-2.14c-0.23-0.52-0.94-1.13-1.47-1.15c-0.55-0.02-1.35,0.49-1.62,0.99c-0.31,0.58-0.18,1.4-0.18,2.12
			c-0.01,9.96,0,19.92,0,29.88c0,0.65,0.17,1.38-0.07,1.93c-0.27,0.6-0.91,1.41-1.42,1.43c-0.57,0.03-1.45-0.61-1.7-1.17
			c-0.33-0.74-0.22-1.69-0.22-2.56c0.02-9.67,0.06-19.34,0.1-29.01c0-0.65,0.19-1.41-0.09-1.92c-0.37-0.68-1.11-1.15-1.69-1.71
			c-0.55,0.6-1.55,1.16-1.59,1.79c-0.17,2.73-0.07,5.48-0.07,8.22c0,8.01,0,16.02,0.02,24.03c0,1.34-0.09,2.54-1.92,2.4
			c-1.56-0.12-1.5-1.23-1.5-2.37c0.01-10.18,0.01-20.35,0-30.53c0-0.72,0.19-1.56-0.1-2.13c-0.32-0.62-1.08-1.3-1.72-1.38
			c-0.44-0.05-1.14,0.8-1.45,1.4c-0.24,0.45-0.06,1.13-0.06,1.71c0,9.81,0,19.63,0,29.44c0,0.58,0.01,1.15-0.01,1.73
			c-0.03,1.19-0.34,2.18-1.81,2.16c-1.43-0.01-1.82-0.87-1.8-2.14c0.03-2.96,0.01-5.92,0.01-8.88c0-7.65,0.01-15.3-0.01-22.95
			c0-1.1,0.34-2.5-1.44-2.59c-1.86-0.09-1.8,1.32-1.8,2.55c0,10.1,0.02,20.21,0.03,30.31c0,0.72,0.18,1.55-0.12,2.13
			c-0.33,0.64-1.1,1.44-1.69,1.45c-0.57,0.01-1.33-0.82-1.65-1.46c-0.29-0.59-0.13-1.41-0.13-2.13c0-8.08,0-16.17,0.01-24.25
			c0-1,0-2,0-3.29c-0.74,0.12-1.11,0.12-1.43,0.24c-7.31,2.57-14.51-0.94-16.68-8.15c-2.16-7.16,2.15-14.64,9.48-16.4
			c1.11-0.27,2.29-0.42,3.43-0.42c16.08-0.03,32.15-0.05,48.23,0c7.13,0.02,12.6,5.05,13.25,12.02
			C192.48,234.64,187.91,240.75,181.04,241.83z"/>
	</g>
</g>
</svg>
